# xmcd
#
# Track frame offsets:
#	150
#	20669
#	30018
#	36156
#	45628
#	54965
#	63132
#	73492
#	86255
#	101329
#	114472
#	129633
#	138031
#	151221
#	166134
#	174190
#	182994
#	194312
#	201094
#	210874
#	222053
#	244999
#	259042
#	270291
#	290218
#
# Disc length: 4068 seconds
# Revision: 2
# Processed by: cddbd v1.5.2PL0 Copyright (c) Steve Scherf et al.
# Submitted via: dBpowerAMP V12.0
#
DISCID=530fe219
DTITLE=Nashville Fiddles - Play Their 100 Best [CD4]
DYEAR=2005
DGENRE=Country, Fiddle
TTITLE0=I'm Thinking Tonight of My Blue Eyes
TTITLE1=Sailor's Hornpipe
TTITLE2=Cotton Eyed Joe
TTITLE3=Blackberry Blossom
TTITLE4=In The Sweet By And By
TTITLE5=Sally Goodin
TTITLE6=Soldier's Prayer
TTITLE7=Wabash Cannonball
TTITLE8=Amen
TTITLE9=I'll Be All Smiles Tonight
TTITLE10=Great Speckled Bird
TTITLE11=Oh Them Golden Slippers
TTITLE12=My Country 'Tis Of Thee
TTITLE13=Rock of Ages
TTITLE14=Old Joe Clark
TTITLE15=Chicken Reel
TTITLE16=Jesus Loves Me
TTITLE17=Handsome Molly
TTITLE18=On The Banks of The Old Ohio
TTITLE19=Softly And Tenderly
TTITLE20=Barbara Allen
TTITLE21=Farther Along
TTITLE22=Spanish Two Step
TTITLE23=Kum By Yah
TTITLE24=Wayfaring Stranger
EXTD=
EXTT0=
EXTT1=
EXTT2=
EXTT3=
EXTT4=
EXTT5=
EXTT6=
EXTT7=
EXTT8=
EXTT9=
EXTT10=
EXTT11=
EXTT12=
EXTT13=
EXTT14=
EXTT15=
EXTT16=
EXTT17=
EXTT18=
EXTT19=
EXTT20=
EXTT21=
EXTT22=
EXTT23=
EXTT24=
PLAYORDER=
